<?xml version="1.0" encoding="iso-8859-1"?>
<!-- Generator: Adobe Illustrator 16.0.0, SVG Export Plug-In . SVG Version: 6.00 Build 0)  -->
<!DOCTYPE svg PUBLIC "-//W3C//DTD SVG 1.1//EN" "http://www.w3.org/Graphics/SVG/1.1/DTD/svg11.dtd">
<svg version="1.1" id="Capa_1" xmlns="http://www.w3.org/2000/svg" xmlns:xlink="http://www.w3.org/1999/xlink" x="0px" y="0px"
	 width="322.208px" height="322.208px" viewBox="0 0 322.208 322.208" style="enable-background:new 0 0 322.208 322.208;"
	 xml:space="preserve">
<g>
	<g>
		<path d="M105.553,150.29v1.103v163.976c5.859,1.253,15.573,3.144,26.543,4.629V192.942l-2.957-8.208l-8.521-23.648
			c-0.803-1.999-0.971-3.94-0.769-5.805c-2.351-0.787-4.725-1.592-7.107-2.423C110.348,152.019,107.94,151.165,105.553,150.29z"/>
		<path d="M258.075,129.048l8.715,63.345c5.312-6.059,10.962-12.78,16.332-19.698l-16.337-57.777
			C264.516,120.14,261.679,124.956,258.075,129.048z"/>
		<path d="M47.631,76.545l-34.264,42.535c0.306,5.339,0.992,10.201,2.201,14.284c2.444,8.262,8.218,18.229,15.322,28.368
			l18.76-66.345C48.516,89.089,47.9,82.689,47.631,76.545z"/>
		<path d="M47.804,56.623c0.681-11.713,2.095-19.825,2.095-19.825l-0.205-0.065c2.941-1.887,4.409-5.551,3.314-9.051
			c-1.072-3.407-4.233-5.551-7.627-5.536l3.024-12.274c1.038-4.226-1.704-8.531-6.131-9.618c-4.427-1.093-8.854,1.452-9.893,5.675
			l-5.87,23.822l-0.647-0.197c0,0-9.72,36.943-12.148,69.289L47.804,56.623z"/>
		<path d="M273.071,91.756l19.314,68.317c6.576-9.566,11.857-18.897,14.167-26.714c1.347-4.559,2.051-10.089,2.289-16.182
			l-34.284-42.564C274.375,80.183,273.925,85.982,273.071,91.756z"/>
		<path d="M274.179,54.45l34.051,42.168c-2.692-31.786-11.972-67.057-11.972-67.057l-0.249,0.073l-5.841-23.706
			c-1.035-4.228-5.468-6.768-9.89-5.675c-4.428,1.092-7.167,5.398-6.131,9.618l3.023,12.28c-3.396-0.011-6.555,2.128-7.622,5.535
			c-1.087,3.448,0.321,7.047,3.169,8.963l-0.497,0.148C272.221,36.798,273.464,43.917,274.179,54.45z"/>
		<path d="M230.538,144.844v131.838l12.837-59.201c0,0,5.183-5.132,12.598-13.111l-9.237-67.14
			C242.1,139.78,236.544,142.341,230.538,144.844z"/>
		<path d="M218.188,149.686c-5.261,1.949-10.626,3.824-15.871,5.572c0.196,1.825,0.026,3.708-0.756,5.652l-8.58,23.819l-1.336,3.713
			v131.327c11.417-1.6,21.229-3.594,26.543-4.753V149.686z"/>
		<path d="M183.852,320.763h-4.558V179.235c-2.268-2.858-4.805-5.184-6.581-5.184c-0.243,0-0.466,0.053-0.72,0.172l-5.515,2.568
			l-1.786-5.811l-0.859-2.791l-0.35-1.139c-1.533,0.419-2.413,0.652-2.413,0.652s-0.881-0.233-2.413-0.652l0,0l-0.35,1.139
			l-0.86,2.791l-1.786,5.811l-5.515-2.568c-0.259-0.119-0.484-0.172-0.722-0.172c-1.494,0-3.588,1.673-5.636,4.023h0.678v142.693
			h-6.193c7.503,0.85,15.34,1.44,22.786,1.44C168.503,322.208,176.343,321.613,183.852,320.763z"/>
		<path d="M93.204,147.638v-2.121c-5.997-2.455-11.553-4.974-16.304-7.493l-0.212,1.543l-9.126,66.309
			c6.648,7.104,11.185,11.599,11.185,11.599l14.458,66.679V147.638z"/>
		<path d="M56.333,117.139L40.19,174.223c5.489,6.984,11.216,13.737,16.544,19.765l8.733-63.453l0.005-0.044
			c-0.513-0.471-0.997-0.95-1.403-1.416C60.967,125.553,58.427,121.514,56.333,117.139z"/>
		<path d="M134.129,182.937c0,0,1.118-2.2,2.959-4.862c2.835-4.111,7.402-9.325,12.322-9.325c0.976,0,1.967,0.202,2.959,0.668
			l0.859-2.791c0,0-0.562-0.575-1.432-1.502c-1.714-1.828-4.699-5.131-7.508-8.815c-4.109-5.388-7.78-11.517-6.299-14.789
			c0,0-10.377,5.896-12.536,12.689c-0.29,0.921-0.401,1.861-0.344,2.804c0.044,0.701,0.155,1.406,0.435,2.104l6.83,18.957
			L134.129,182.937z"/>
		<path d="M187.989,182.937l1.75-4.862l6.83-18.957c0.28-0.699,0.394-1.403,0.436-2.104c0.471-7.889-12.884-15.488-12.884-15.488
			c2.496,5.515-9.59,19.11-13.805,23.604c-0.87,0.927-1.429,1.501-1.429,1.501l0.859,2.791c0.989-0.466,1.978-0.668,2.956-0.668
			c4.914,0,9.481,5.215,12.324,9.326C186.871,180.737,187.989,182.937,187.989,182.937z"/>
		<path d="M199.366,103.852c-45.428-19.535-75.922-0.409-76.22-0.212c-0.64,0.409-1.408,0.536-2.141,0.334
			c-0.249-0.07-0.461-0.217-0.678-0.35c1.178,13.085,8.525,24.368,19.104,30.976c0.865,0.541,1.74,1.067,2.651,1.543
			c0.334,0.176,0.684,0.329,1.022,0.495c0.79,0.386,1.584,0.779,2.403,1.113c4.797,1.973,10.043,3.076,15.552,3.076
			c5.51,0,10.752-1.103,15.553-3.076c0.818-0.339,1.61-0.728,2.402-1.113c0.342-0.166,0.694-0.318,1.021-0.495
			c0.906-0.476,1.786-1.002,2.651-1.543c10.562-6.602,17.91-17.852,19.102-30.918c-0.414,0.251-0.891,0.383-1.377,0.383
			C200.07,104.069,199.717,104,199.366,103.852z"/>
		<path d="M202.762,90.808l0.362-0.717c-1.004-20.757-17.036-37.625-37.458-39.856c-0.431-1.142-1.196-2.063-2.151-2.791
			c-1.093-0.836-2.393-1.421-3.871-1.421c-1.66,0-3.141,0.668-4.285,1.698c-0.88,0.784-1.483,1.797-1.83,2.959
			c-19.004,3.446-33.573,19.654-34.528,39.406l0.36,0.717l0.663,1.331l0.673,1.341l2.128,4.251
			c2.866-1.499,8.081-3.816,15.227-5.592c1.973-0.495,4.057-0.956,6.328-1.331c7.979-1.326,17.766-1.719,29.018,0
			c2.273,0.35,4.608,0.795,7.001,1.331c5.918,1.321,12.168,3.192,18.766,5.88l2.268-4.539l0.674-1.341L202.762,90.808z
			 M134.092,83.787c-1.289,0.637-2.032,1.093-2.074,1.113c-0.621,0.394-1.437,0.218-1.835-0.391
			c-0.396-0.611-0.223-1.432,0.388-1.831c0.992-0.652,24.666-15.64,60.768-0.111c0.673,0.293,0.989,1.067,0.693,1.74
			c-0.217,0.505-0.704,0.8-1.211,0.8c-0.177,0-0.353-0.036-0.528-0.111c-1.072-0.461-2.103-0.811-3.148-1.219
			C159.898,73.262,140.226,80.755,134.092,83.787z"/>
	</g>
</g>
<g>
</g>
<g>
</g>
<g>
</g>
<g>
</g>
<g>
</g>
<g>
</g>
<g>
</g>
<g>
</g>
<g>
</g>
<g>
</g>
<g>
</g>
<g>
</g>
<g>
</g>
<g>
</g>
<g>
</g>
</svg>
